<svg xmlns="http://www.w3.org/2000/svg" width="24" height="24" viewBox="0 0 24 24" fill="currentColor"><path d="M20 6h-2.18c.07-.28.18-.49.18-.78C18 3.34 16.66 2 15.22 2c-.97 0-1.76.52-2.4 1.33L12 4.9l-.82-1.57C10.54 2.52 9.75 2 8.78 2 7.34 2 6 3.34 6 4.78c0 .29.11.5.18.78H4c-1.1 0-2 .9-2 2v2c0 1.1.9 2 2 2h16c1.1 0 2-.9 2-2V8c0-1.1-.9-2-2-2zm-14.78 0C4.78 6 4 5.22 4 4.78S4.78 3.56 5.22 3.56c.31 0 .78.3 1.26 1.1L7 5.96c-.26.04-.52.04-.78.04zm9.56 0c-.27 0-.52 0-.79-.04l.53-1.3c.48-.8.95-1.1 1.26-1.1.44 0 1.22.78 1.22 1.22S16.22 6 15.22 6zM4 11v9a2 2 0 0 0 2 2h5v-11H4zm9 0v11h5a2 2 0 0 0 2-2v-9h-7z"/></svg>